<!--?xml version="1.0" encoding="utf-8"?-->
<!-- Generator: Adobe Illustrator 18.1.1, SVG Export Plug-In . SVG Version: 6.00 Build 0)  -->

<svg version="1.1" id="_x31_0" xmlns="http://www.w3.org/2000/svg" xmlns:xlink="http://www.w3.org/1999/xlink" x="0px" y="0px" viewBox="0 0 512 512" style="width: 48px; height: 48px; opacity: 1;" xml:space="preserve">
<style type="text/css">
	.st0{fill:#374149;}
</style>
<g>
	<path class="st0" d="M75.058,17.623C28.722,63.959,0,127.959,0,198.565c0,70.554,28.722,134.55,75.058,180.89l21.707-21.66v-0.051
		c-40.805-40.808-66.047-97.074-66.047-159.179S55.961,80.139,96.766,39.334L75.058,17.623z" style="fill: rgb(255, 255, 255);"></path>
	<path class="st0" d="M436.942,17.623h-0.051l-21.66,21.711c40.809,40.805,66.051,97.125,66.051,159.23
		s-25.242,118.426-66.051,159.23l21.711,21.711C483.278,333.17,512,269.166,512,198.565C512,127.959,483.278,63.959,436.942,17.623z
		" style="fill: rgb(255, 255, 255);"></path>
	<path class="st0" d="M169.114,285.401c-22.223-22.274-35.997-52.993-35.997-86.836c0-33.894,13.774-64.614,35.997-86.887
		l-21.661-21.656c-27.797,27.852-45.054,66.203-45.054,108.543c0,42.343,17.258,80.691,45.054,108.492L169.114,285.401z" style="fill: rgb(255, 255, 255);"></path>
	<path class="st0" d="M364.656,90.08l-0.004,0.004c-0.038-0.035-0.07-0.078-0.109-0.117l-21.551,21.55l-0.046,0.047l0,0l-0.11,0.113
		c22.27,22.274,36.043,52.993,36.043,86.887c0,33.843-13.774,64.562-36.043,86.836l21.707,21.706
		c27.801-27.801,45.058-66.199,45.058-108.542c0-41.684-16.782-79.492-43.824-107.238C365.386,90.924,365.05,90.478,364.656,90.08z" style="fill: rgb(255, 255, 255);"></path>
	<path class="st0" d="M276.957,219.146c1.223-0.934,2.402-1.918,3.489-3.004c6.258-6.258,10.129-14.902,10.129-24.445
		c0-9.574-3.871-18.219-10.129-24.446h-0.035c-6.258-6.258-14.867-10.129-24.41-10.129c-9.543,0-18.187,3.871-24.446,10.129
		c-6.258,6.226-10.129,14.871-10.129,24.446c0,9.542,3.871,18.152,10.129,24.41v0.035c1.086,1.086,2.266,2.07,3.485,3.004
		l-88.805,257.852c-2.355,6.843,1.282,14.305,8.125,16.664c1.414,0.484,2.852,0.714,4.27,0.714c5.438,0,10.52-3.414,12.39-8.839
		l15.586-45.25l105.445-52.05l13.184-6.489l35.742,103.79c1.871,5.43,6.953,8.839,12.394,8.839c1.414,0,2.855-0.23,4.27-0.714
		c6.843-2.359,10.48-9.821,8.125-16.664L276.957,219.146z M291.625,342.611l-58.843-36.394L256,238.795l20.094,58.34
		L291.625,342.611z M195.32,414.974l31.207-90.609l44.226,27.355l23.418,14.586l-57.969,28.614L195.32,414.974z" style="fill: rgb(255, 255, 255);"></path>
</g>
</svg>
